<?xml version="1.0" standalone="no"?>
<!DOCTYPE svg PUBLIC "-//W3C//DTD SVG 1.0//EN" "http://www.w3.org/TR/2001/REC-SVG-20010904/DTD/svg10.dtd">
<svg xmlns="http://www.w3.org/2000/svg" xmlns:xlink="http://www.w3.org/1999/xlink" id="body_1" width="36" height="36">

<defs>
                    <clipPath  id="1">

                        <path clip-rule="evenodd" d="M0 0L1720 0L1720 1720L0 1720z" />                    </clipPath>
</defs>

<g transform="matrix(0.020930234 0 0 0.020930234 0 0)">
	<g>
		<g>
			<g>
			</g>
			<g>
			</g>
		</g>
	</g>
	<g>
		<g>
			<g>
				<g clip-path="url(#1)" >
					<g>
						<g>
							<g>
                                <path d="M70 71L1649 71L1649 1650L70 1650z" stroke="none" fill="none" />
                                <path d="M1277 628L1621 653L1617 1516L1277 1512L1277 628zM497 1512L1081 613L689 571L82 1512L497 1512zM1634 551L1636 204L1125 204L1234 549L1634 551z" stroke="none" fill="#B0B0B0" fill-rule="nonzero" />
                                <path d="M704 550L867 293C 867 293 912 204 1019 204L1019 204L1125 204L1234 549L703 551L704 550z" stroke="none" fill="#B0B0B0" fill-rule="nonzero" />
                                <path d="M1139 549L1351 549L1250 204L1067 205L1139 549zM1421 204L1636 204L1636 549L1421 549L1421 204zM1617 666L1636 666L1636 1516L1617 1516L1617 666z" stroke="none" fill="#B0B0B0" fill-rule="nonzero" />
                                <path d="M1468 642L1636 654L1636 666L1621 666L1468 644L1468 642z" stroke="none" fill="#B0B0B0" fill-rule="nonzero" />
							</g>
						</g>
					</g>
				</g>
			</g>
		</g>
	</g>
</g>
</svg>